<!-- Generated by IcoMoon.io -->
<svg version="1.1" xmlns="http://www.w3.org/2000/svg" width="768" height="768" viewBox="0 0 768 768">
<title>menu</title>
<g id="icomoon-ignore">
</g>
<path fill="#000" d="M511.5 352.5h-31.5v-256.5q0-27-18.75-45.75t-45.75-18.75h-63q-27 0-45.75 18.75t-18.75 45.75v256.5h-31.5q-45 0-81 21t-57.75 57.75-21.75 80.25v225h576v-225q0-43.5-21.75-80.25t-57.75-57.75-81-21zM607.5 672h-63v-96q0-13.5-9.75-22.5t-23.25-9q-12 0-21.75 9t-9.75 22.5v96h-64.5v-96q0-13.5-9-22.5t-22.5-9-22.5 9-9 22.5v96h-64.5v-96q0-13.5-9.75-22.5t-21.75-9q-13.5 0-23.25 9t-9.75 22.5v96h-63v-160.5q0-25.5 12.75-47.25t34.5-35.25 48.75-13.5h255q27 0 48.75 13.5t34.5 35.25 12.75 47.25v160.5z"></path>
</svg>
