<svg width="30" height="25" viewBox="0 0 30 25" fill="none" xmlns="http://www.w3.org/2000/svg">
<path d="M15.1947 2.25142C19.0372 2.25142 19.4922 2.26607 21.0033 2.32467C22.4077 2.37839 23.1661 2.58351 23.6717 2.75444C24.3402 2.9791 24.8233 3.25259 25.3233 3.68724C25.8288 4.12678 26.1378 4.5419 26.4018 5.12307C26.5985 5.56261 26.8344 6.2268 26.8962 7.44286C26.9636 8.76148 26.9805 9.15706 26.9805 12.4927C26.9805 15.8283 26.9636 16.2288 26.8962 17.5425C26.8344 18.7634 26.5985 19.4227 26.4018 19.8623C26.1434 20.4434 25.8288 20.8635 25.3289 21.2981C24.8233 21.7376 24.3458 22.0063 23.6773 22.2358C23.1717 22.4067 22.4077 22.6118 21.0089 22.6656C19.4922 22.7242 19.0372 22.7388 15.2004 22.7388C11.3635 22.7388 10.9029 22.7242 9.39176 22.6656C7.98736 22.6118 7.22898 22.4067 6.7234 22.2358C6.0549 22.0111 5.57179 21.7376 5.07183 21.303C4.56624 20.8635 4.25727 20.4483 3.99325 19.8672C3.79663 19.4276 3.56069 18.7634 3.4989 17.5474C3.43149 16.2288 3.41463 15.8332 3.41463 12.4976C3.41463 9.16195 3.43149 8.76148 3.4989 7.44774C3.56069 6.2268 3.79663 5.56749 3.99325 5.12795C4.25166 4.54679 4.56624 4.12678 5.06621 3.69213C5.57179 3.25259 6.04929 2.98398 6.71778 2.75444C7.22336 2.58351 7.98736 2.37839 9.38614 2.32467C10.8973 2.26607 11.3523 2.25142 15.1947 2.25142ZM15.1947 0C11.2905 0 10.8018 0.0146513 9.26817 0.0732565C7.74018 0.131862 6.68969 0.346747 5.77964 0.654425C4.83027 0.976753 4.02695 1.40164 3.22925 2.10002C2.42594 2.79351 1.93721 3.49189 1.56644 4.31237C1.21254 5.10842 0.965362 6.0168 0.89795 7.34518C0.830539 8.68334 0.813686 9.10822 0.813686 12.5024C0.813686 15.8967 0.830539 16.3215 0.89795 17.6548C0.965362 18.9832 1.21254 19.8965 1.56644 20.6876C1.93721 21.513 2.42594 22.2114 3.22925 22.9049C4.02695 23.5984 4.83027 24.0281 5.77402 24.3456C6.68969 24.6533 7.73457 24.8681 9.26255 24.9267C10.7962 24.9853 11.2849 25 15.1891 25C19.0933 25 19.5821 24.9853 21.1157 24.9267C22.6437 24.8681 23.6942 24.6533 24.6042 24.3456C25.548 24.0281 26.3513 23.5984 27.149 22.9049C27.9467 22.2114 28.441 21.513 28.8062 20.6925C29.1601 19.8965 29.4073 18.9881 29.4747 17.6597C29.5421 16.3264 29.5589 15.9015 29.5589 12.5073C29.5589 9.11311 29.5421 8.68822 29.4747 7.35495C29.4073 6.02657 29.1601 5.1133 28.8062 4.32213C28.4523 3.49189 27.9635 2.79351 27.1602 2.10002C26.3625 1.40652 25.5592 0.976753 24.6154 0.659308C23.6998 0.351631 22.6549 0.136745 21.1269 0.0781403C19.5877 0.0146513 19.099 0 15.1947 0V0Z" fill="white"/>
<path d="M15.1863 6.08766C11.1002 6.08766 7.78513 8.9598 7.78513 12.5C7.78513 16.0402 11.1002 18.9123 15.1863 18.9123C19.2724 18.9123 22.5875 16.0402 22.5875 12.5C22.5875 8.9598 19.2724 6.08766 15.1863 6.08766ZM15.1863 16.6595C12.5354 16.6595 10.3854 14.7967 10.3854 12.5C10.3854 10.2033 12.5354 8.34051 15.1863 8.34051C17.8372 8.34051 19.9872 10.2033 19.9872 12.5C19.9872 14.7967 17.8372 16.6595 15.1863 16.6595Z" fill="white"/>
<path d="M24.593 5.80356C24.593 6.63288 23.8234 7.30519 22.874 7.30519C21.9246 7.30519 21.155 6.63288 21.155 5.80356C21.155 4.97425 21.9246 4.30194 22.874 4.30194C23.8234 4.30194 24.593 4.97425 24.593 5.80356Z" fill="white"/>
</svg>
