<svg width="30" height="25" viewBox="0 0 30 25" fill="none" xmlns="http://www.w3.org/2000/svg">
<path d="M26.6778 0H3.32224C1.84006 0 0.627373 1.05469 0.627373 2.34375V22.6562C0.627373 23.9453 1.84006 25 3.32224 25H26.6778C28.1599 25 29.3726 23.9453 29.3726 22.6562V2.34375C29.3726 1.05469 28.1599 0 26.6778 0ZM11.4068 20.3125H7.81368V9.375H11.4068V20.3125ZM9.61026 7.8125C8.61653 7.8125 7.81368 7.11426 7.81368 6.25C7.81368 5.38574 8.61653 4.6875 9.61026 4.6875C10.604 4.6875 11.4068 5.38574 11.4068 6.25C11.4068 7.11426 10.604 7.8125 9.61026 7.8125ZM23.9829 20.3125H20.3897V14.0625C20.3897 13.1982 19.5869 12.5 18.5932 12.5C17.5994 12.5 16.7966 13.1982 16.7966 14.0625V20.3125H13.2034V9.375H16.7966V11.3135C17.5377 10.4297 18.6718 9.375 19.9406 9.375C22.1751 9.375 23.9829 11.123 23.9829 13.2812V20.3125Z" fill="white"/>
</svg>
