<svg width="29" height="25" viewBox="0 0 29 25" fill="none" xmlns="http://www.w3.org/2000/svg">
<path d="M29 2.95673C27.9447 3.46154 26.8052 3.79808 25.6152 3.94832C26.8333 3.16707 27.7651 1.92909 28.2085 0.456731C27.069 1.17788 25.8061 1.70673 24.4645 1.98918C23.3868 0.763221 21.8544 0 20.1592 0C16.9035 0 14.2653 2.82452 14.2653 6.3101C14.2653 6.80288 14.3158 7.28365 14.4169 7.74639C9.51654 7.48197 5.17192 4.96995 2.26427 1.14784C1.75909 2.07933 1.4672 3.16707 1.4672 4.32091C1.4672 6.50841 2.50564 8.44351 4.08857 9.57332C3.1231 9.54327 2.21376 9.25481 1.41668 8.78606C1.41668 8.8101 1.41668 8.84014 1.41668 8.86418C1.41668 11.9231 3.44866 14.4772 6.14862 15.0541C5.65465 15.1983 5.13262 15.2764 4.59376 15.2764C4.21206 15.2764 3.8472 15.2344 3.48234 15.1623C4.23451 17.6683 6.41244 19.4952 8.9889 19.5493C6.96814 21.244 4.43097 22.2536 1.66366 22.2536C1.18654 22.2536 0.720642 22.2236 0.254745 22.1635C2.8705 23.9603 5.96899 25 9.29763 25C20.1423 25 26.0755 15.3786 26.0755 7.03726C26.0755 6.76082 26.0699 6.49038 26.0587 6.21995C27.2094 5.33654 28.2085 4.22476 29 2.95673Z" fill="white"/>
</svg>
