<svg width="30" height="25" viewBox="0 0 30 25" fill="none" xmlns="http://www.w3.org/2000/svg">
<path d="M28.8944 5.39434C28.8944 5.39434 28.6137 2.94363 27.7491 1.86754C26.6543 0.451264 25.4303 0.444321 24.8689 0.361011C20.8491 -1.98627e-07 14.8137 0 14.8137 0H14.8025C14.8025 0 8.76709 -1.98627e-07 4.74724 0.361011C4.18581 0.444321 2.96189 0.451264 1.8671 1.86754C1.0025 2.94363 0.7274 5.39434 0.7274 5.39434C0.7274 5.39434 0.441071 8.26854 0.441071 11.1497V13.8434C0.441071 16.7176 0.7274 19.5987 0.7274 19.5987C0.7274 19.5987 1.00812 22.0494 1.8671 23.1255C2.96189 24.5418 4.39916 24.4932 5.03919 24.6459C7.34105 24.9167 14.8137 25 14.8137 25C14.8137 25 20.8547 24.9861 24.8745 24.632C25.436 24.5487 26.6599 24.5418 27.7547 23.1255C28.6193 22.0494 28.9 19.5987 28.9 19.5987C28.9 19.5987 29.1863 16.7245 29.1863 13.8434V11.1497C29.1807 8.27548 28.8944 5.39434 28.8944 5.39434ZM11.8381 17.1133V7.12302L19.6027 12.1355L11.8381 17.1133Z" fill="white"/>
</svg>
